<svg width="97" height="27" viewBox="0 0 97 27" fill="none" xmlns="http://www.w3.org/2000/svg">
<path d="M33.8071 20.7469H43.0028V18.2101H36.8443V6.19409H33.8071V20.7469Z" fill="black"/>
<path d="M49.8259 20.9601C53.0946 20.9601 55.1287 18.6933 55.1287 15.3322C55.1287 11.9498 53.0946 9.69017 49.8259 9.69017C46.5573 9.69017 44.5232 11.9498 44.5232 15.3322C44.5232 18.6933 46.5573 20.9601 49.8259 20.9601ZM49.84 18.6151C48.3319 18.6151 47.5603 17.2153 47.5603 15.3109C47.5603 13.4065 48.3319 11.9996 49.84 11.9996C51.32 11.9996 52.0916 13.4065 52.0916 15.3109C52.0916 17.2153 51.32 18.6151 49.84 18.6151Z" fill="black"/>
<path d="M57.0717 20.7469H60.0597V14.1953C60.0597 12.9873 60.8173 12.1843 61.8133 12.1843C62.7953 12.1843 63.4547 12.8665 63.4547 13.9395V20.7469H66.3515V14.0816C66.3515 12.9518 66.9898 12.1843 68.077 12.1843C69.031 12.1843 69.7464 12.7883 69.7464 14.0034V20.7469H72.7275V13.4065C72.7275 11.0403 71.3387 9.69017 69.3326 9.69017C67.7544 9.69017 66.5269 10.5073 66.085 11.758H65.9728C65.6291 10.4931 64.5278 9.69017 63.0478 9.69017C61.5959 9.69017 60.4946 10.4718 60.0457 11.758H59.9195V9.83229H57.0717V20.7469Z" fill="black"/>
<path d="M78.16 20.9529C79.7523 20.9529 80.7834 20.2495 81.3094 19.2333H81.3936V20.7469H84.2274V13.3852C84.2274 10.7845 82.053 9.69017 79.6541 9.69017C77.0728 9.69017 75.3754 10.9408 74.9615 12.9304L77.7252 13.1578C77.9286 12.433 78.5669 11.9001 79.6401 11.9001C80.6571 11.9001 81.2393 12.4188 81.2393 13.3142V13.3568C81.2393 14.0603 80.5028 14.1526 78.63 14.3374C76.4977 14.5364 74.5828 15.2612 74.5828 17.6985C74.5828 19.8586 76.1049 20.9529 78.16 20.9529ZM79.0158 18.8638C78.0969 18.8638 77.4376 18.4304 77.4376 17.599C77.4376 16.7463 78.132 16.327 79.1841 16.1778C79.8365 16.0854 80.9026 15.9291 81.2603 15.6875V16.8458C81.2603 17.9898 80.3275 18.8638 79.0158 18.8638Z" fill="black"/>
<path d="M89.5337 14.4369C89.5407 13.0299 90.3684 12.2056 91.5748 12.2056C92.7743 12.2056 93.4967 13.0015 93.4897 14.3374V20.7469H96.4778V13.7974C96.4778 11.2535 95.0048 9.69017 92.7602 9.69017C91.161 9.69017 90.0036 10.486 89.5196 11.758H89.3934V9.83229H86.5456V20.7469H89.5337V14.4369Z" fill="black"/>
<path fill-rule="evenodd" clip-rule="evenodd" d="M14.3135 27C21.6733 27 27.6395 20.9558 27.6395 13.5C27.6395 6.04416 21.6733 0 14.3135 0C6.9538 0 0.987549 6.04416 0.987549 13.5C0.987549 20.9558 6.9538 27 14.3135 27ZM9.60568 19.0215C7.71243 18.4585 6.62552 16.4422 7.18127 14.5242L8.03925 14.7794C7.62283 16.2164 8.43906 17.7305 9.85754 18.1523L9.60568 19.0215ZM19.0194 7.97476C20.9126 8.5378 21.9996 10.5541 21.4438 12.472L20.5858 12.2169C21.0023 10.7798 20.186 9.26578 18.7675 8.84393L19.0194 7.97476ZM19.743 13.1746L17.8842 9.72672C17.7886 9.55058 17.6284 9.41956 17.4383 9.36183C17.2482 9.30412 17.0433 9.32434 16.8678 9.41814C16.5053 9.61871 16.3726 10.0765 16.5706 10.4438L18.2152 13.4944L17.9562 13.6377C17.5404 13.868 17.2319 14.2562 17.0984 14.7168C16.9649 15.1775 17.0174 15.673 17.2443 16.0945L16.719 16.3851C16.4413 15.8687 16.359 15.2674 16.4874 14.6939C16.6159 14.1204 16.9463 13.614 17.4168 13.2695L14.3378 7.55801C14.1398 7.19075 13.6879 7.05637 13.3254 7.25694C12.9629 7.45752 12.8302 7.91528 13.0282 8.28256L15.2425 12.3901L14.7303 12.6783L11.9463 7.51395C11.7483 7.14667 11.2964 7.01228 10.9339 7.21286C10.5713 7.41344 10.4387 7.8712 10.6367 8.23848L13.4207 13.4028L12.8954 13.6935L10.5397 9.32362C10.3417 8.95634 9.8898 8.82198 9.52728 9.02255C9.16473 9.22313 9.03207 9.68089 9.23007 10.0482L11.8727 14.9502L11.3474 15.2408L9.56137 11.9278C9.5145 11.8406 9.45111 11.7636 9.37485 11.7013C9.29855 11.6389 9.21088 11.5925 9.11685 11.5645C9.0228 11.5365 8.92422 11.5276 8.82678 11.5383C8.72934 11.549 8.63495 11.579 8.54898 11.6268C8.18643 11.8273 8.0538 12.2851 8.25177 12.6524L11.1085 17.9516C12.4096 20.3652 15.401 21.2548 17.7835 19.9367C20.1659 18.6186 21.044 15.5881 19.743 13.1746Z" fill="black"/>
</svg>
