<svg xmlns="http://www.w3.org/2000/svg" fill="none" viewBox="0 0 97 27">
    <defs/>
    <path fill="#000" d="M32.82 20.747h9.195V18.21h-6.158V6.194h-3.038v14.553zM48.838 20.96c3.269 0 5.303-2.267 5.303-5.628 0-3.382-2.034-5.642-5.303-5.642-3.268 0-5.302 2.26-5.302 5.642 0 3.361 2.034 5.628 5.302 5.628zm.014-2.345c-1.508 0-2.28-1.4-2.28-3.304 0-1.905.772-3.311 2.28-3.311 1.48 0 2.252 1.406 2.252 3.31 0 1.905-.772 3.305-2.252 3.305zM56.084 20.747h2.988v-6.552c0-1.208.758-2.01 1.754-2.01.982 0 1.641.681 1.641 1.755v6.807h2.897v-6.665c0-1.13.638-1.898 1.725-1.898.954 0 1.67.604 1.67 1.82v6.743h2.98v-7.34c0-2.367-1.388-3.717-3.394-3.717-1.578 0-2.806.817-3.248 2.068h-.112c-.344-1.265-1.445-2.068-2.925-2.068-1.452 0-2.553.782-3.002 2.068h-.126V9.832h-2.848v10.915zM77.172 20.953c1.593 0 2.624-.703 3.15-1.72h.084v1.514h2.834v-7.362c0-2.6-2.175-3.695-4.573-3.695-2.582 0-4.28 1.25-4.693 3.24l2.764.228c.203-.725.841-1.258 1.914-1.258 1.017 0 1.6.519 1.6 1.414v.043c0 .703-.737.796-2.61.98-2.132.2-4.047.924-4.047 3.361 0 2.16 1.522 3.255 3.577 3.255zm.856-2.09c-.919 0-1.578-.433-1.578-1.264 0-.853.694-1.272 1.746-1.421.653-.093 1.719-.249 2.077-.49v1.158c0 1.144-.933 2.018-2.245 2.018zM88.546 14.437c.007-1.407.835-2.231 2.041-2.231 1.2 0 1.922.796 1.915 2.131v6.41h2.988v-6.95c0-2.543-1.473-4.107-3.717-4.107-1.6 0-2.757.796-3.241 2.068h-.126V9.832h-2.848v10.915h2.988v-6.31z"/>
    <ellipse cx="13.326" cy="13.5" fill="#000" rx="13.326" ry="13.5"/>
    <path fill="#fff" d="M6.194 14.524c-.556 1.918.53 3.935 2.424 4.498l.252-.87c-1.418-.422-2.235-1.936-1.818-3.373l-.858-.255zm14.262-2.052c.556-1.918-.53-3.934-2.424-4.497l-.252.869c1.418.422 2.235 1.936 1.818 3.373l.858.255zm-3.56-2.745l1.86 3.448c1.3 2.413.422 5.444-1.96 6.762-2.382 1.318-5.374.428-6.675-1.985l-2.857-5.3a.76.76 0 01.575-1.114.735.735 0 01.548.163c.077.063.14.14.187.227l1.786 3.313.525-.29-2.642-4.903a.76.76 0 01.297-1.025.74.74 0 011.012.3l2.356 4.37.525-.29L9.65 8.238a.76.76 0 01.297-1.025.74.74 0 011.013.3l2.784 5.165.512-.288-2.214-4.107a.76.76 0 01.297-1.026.74.74 0 011.012.301l3.08 5.712c-.471.344-.802.85-.93 1.424a2.445 2.445 0 00.231 1.691l.526-.29a1.833 1.833 0 01-.146-1.378c.133-.46.442-.849.858-1.08l.259-.143-1.645-3.05a.76.76 0 01.297-1.026.748.748 0 011.017.309z"/>
</svg>